# xmcd CD database file
#
# Track frame offsets:
#	150
#	17318
#	26059
#	41694
#	55522
#	68927
#	85382
#	98644
#	112415
#	124640
#	145511
#	160727
#
# Disc length: 2319 seconds
#
# Revision: 0
# Processed by: cddbd v1.5.2PL0 Copyright (c) Steve Scherf et al.
# Submitted via: CDex 1.51
#
DISCID=95090d0c
DTITLE=HitBandits - HitBandits
DYEAR=2007
DGENRE=Country
TTITLE0=Standing Outside The Fire
TTITLE1=Great Balls Of Fire
TTITLE2=Du mochst Mi Krank
TTITLE3=Dixie Road
TTITLE4=Bad Leroy Brown
TTITLE5=If Tomorrow Never Comes
TTITLE6=Faith
TTITLE7=Power To All Our Friends
TTITLE8=Lazy Lady
TTITLE9=Sweet Home Alabama
TTITLE10=Achy Breaky Heart
TTITLE11=Much Too Young
EXTD=YEAR: 2007
EXTT0=
EXTT1=
EXTT2=
EXTT3=
EXTT4=
EXTT5=
EXTT6=
EXTT7=
EXTT8=
EXTT9=
EXTT10=
EXTT11=
PLAYORDER=
